<?xml version="1.0" encoding="UTF-8"?>
<!-- This file is generated by npm run build:icons -->
<svg xmlns="http://www.w3.org/2000/svg" xmlns:xlink="http://www.w3.org/1999/xlink" width="0" height="0">
<defs>
<symbol viewBox="0 0 24 24" fill="none" id="bookmark-filled">
<g id="SVGRepo_bgCarrier" stroke-width="0"></g>
<g id="SVGRepo_tracerCarrier" stroke-linecap="round" stroke-linejoin="round"></g>
<g id="SVGRepo_iconCarrier"> <path fill-rule="evenodd" clip-rule="evenodd" d="M21 11.0975V16.0909C21 19.1875 21 20.7358 20.2659 21.4123C19.9158 21.735 19.4739 21.9377 19.0031 21.9915C18.016 22.1045 16.8633 21.0849 14.5578 19.0458C13.5388 18.1445 13.0292 17.6938 12.4397 17.5751C12.1494 17.5166 11.8506 17.5166 11.5603 17.5751C10.9708 17.6938 10.4612 18.1445 9.44216 19.0458C7.13673 21.0849 5.98402 22.1045 4.99692 21.9915C4.52615 21.9377 4.08421 21.735 3.73411 21.4123C3 20.7358 3 19.1875 3 16.0909V11.0975C3 6.80891 3 4.6646 4.31802 3.3323C5.63604 2 7.75736 2 12 2C16.2426 2 18.364 2 19.682 3.3323C21 4.6646 21 6.80891 21 11.0975ZM8.25 6C8.25 5.58579 8.58579 5.25 9 5.25H15C15.4142 5.25 15.75 5.58579 15.75 6C15.75 6.41421 15.4142 6.75 15 6.75H9C8.58579 6.75 8.25 6.41421 8.25 6Z" fill="#FFD966"></path> </g>
</symbol>
<symbol viewBox="0 0 24 24" fill="none" id="bookmark-outline">
<path d="M9 5.25C8.58579 5.25 8.25 5.58579 8.25 6C8.25 6.41421 8.58579 6.75 9 6.75H15C15.4142 6.75 15.75 6.41421 15.75 6C15.75 5.58579 15.4142 5.25 15 5.25H9Z" fill="#1C274D"></path>
<path fill-rule="evenodd" clip-rule="evenodd" d="M11.9425 1.25C9.86994 1.24999 8.23716 1.24997 6.96128 1.42337C5.65122 1.60141 4.60609 1.97468 3.78484 2.80484C2.96469 3.63387 2.59692 4.68702 2.4213 6.00741C2.24998 7.29551 2.24999 8.94462 2.25 11.0411V16.139C2.24999 17.6466 2.24998 18.8402 2.34601 19.7388C2.44091 20.6269 2.64447 21.428 3.22584 21.9638C3.69226 22.3937 4.28211 22.6646 4.91165 22.7367C5.69912 22.8268 6.43439 22.4508 7.15868 21.9377C7.89163 21.4185 8.78075 20.6321 9.90254 19.6399L9.93905 19.6076C10.4591 19.1476 10.8112 18.8372 11.105 18.6224C11.3889 18.4148 11.5623 18.3397 11.7084 18.3103C11.9009 18.2715 12.0991 18.2715 12.2916 18.3103C12.4377 18.3397 12.6111 18.4148 12.895 18.6224C13.1888 18.8372 13.5409 19.1476 14.061 19.6076L14.0975 19.64C15.2193 20.6321 16.1084 21.4186 16.8413 21.9377C17.5656 22.4508 18.3009 22.8268 19.0883 22.7367C19.7179 22.6646 20.3077 22.3937 20.7742 21.9638C21.3555 21.428 21.5591 20.6269 21.654 19.7388C21.75 18.8402 21.75 17.6466 21.75 16.139V11.041C21.75 8.94462 21.75 7.2955 21.5787 6.00741C21.4031 4.68702 21.0353 3.63387 20.2152 2.80484C19.3939 1.97468 18.3488 1.60141 17.0387 1.42337C15.7628 1.24997 14.1301 1.24999 12.0575 1.25H11.9425ZM4.8512 3.85977C5.34797 3.35762 6.02251 3.06474 7.16328 2.90971C8.32645 2.75163 9.85725 2.75 12 2.75C14.1427 2.75 15.6736 2.75163 16.8367 2.90971C17.9775 3.06474 18.652 3.35762 19.1488 3.85977C19.6467 4.36303 19.9379 5.04819 20.0918 6.20518C20.2484 7.38292 20.25 8.93223 20.25 11.0975V16.0909C20.25 17.6572 20.249 18.7702 20.1625 19.5794C20.0739 20.4088 19.9104 20.72 19.7576 20.8608C19.5238 21.0763 19.2298 21.2107 18.9178 21.2464C18.7182 21.2692 18.3835 21.192 17.7083 20.7137C17.0497 20.2472 16.2211 19.5157 15.0547 18.484L15.0286 18.4609C14.5413 18.0299 14.1372 17.6725 13.7804 17.4116C13.4074 17.1388 13.0312 16.9292 12.5878 16.8398C12.1998 16.7617 11.8002 16.7617 11.4122 16.8398C10.9688 16.9292 10.5926 17.1388 10.2196 17.4116C9.86283 17.6725 9.45871 18.0299 8.97146 18.4609L8.94527 18.484C7.77887 19.5157 6.95026 20.2472 6.29165 20.7137C5.61646 21.192 5.28182 21.2692 5.08218 21.2464C4.77019 21.2107 4.47617 21.0763 4.24237 20.8608C4.08963 20.72 3.92614 20.4088 3.83752 19.5794C3.75104 18.7702 3.75 17.6572 3.75 16.0909V11.0975C3.75 8.93223 3.75156 7.38292 3.90821 6.20518C4.06209 5.04819 4.35333 4.36303 4.8512 3.85977Z" fill="#1C274D"></path>
</symbol>
<symbol viewBox="0 0 24 24" fill="none" id="copy-outline">
<path fill-rule="evenodd" clip-rule="evenodd" d="M15 1.25H10.9436C9.10583 1.24998 7.65019 1.24997 6.51098 1.40314C5.33856 1.56076 4.38961 1.89288 3.64124 2.64124C2.89288 3.38961 2.56076 4.33856 2.40314 5.51098C2.24997 6.65019 2.24998 8.10582 2.25 9.94357V16C2.25 17.8722 3.62205 19.424 5.41551 19.7047C5.55348 20.4687 5.81753 21.1208 6.34835 21.6517C6.95027 22.2536 7.70814 22.5125 8.60825 22.6335C9.47522 22.75 10.5775 22.75 11.9451 22.75H15.0549C16.4225 22.75 17.5248 22.75 18.3918 22.6335C19.2919 22.5125 20.0497 22.2536 20.6517 21.6517C21.2536 21.0497 21.5125 20.2919 21.6335 19.3918C21.75 18.5248 21.75 17.4225 21.75 16.0549V10.9451C21.75 9.57754 21.75 8.47522 21.6335 7.60825C21.5125 6.70814 21.2536 5.95027 20.6517 5.34835C20.1208 4.81753 19.4687 4.55348 18.7047 4.41551C18.424 2.62205 16.8722 1.25 15 1.25ZM17.1293 4.27117C16.8265 3.38623 15.9876 2.75 15 2.75H11C9.09318 2.75 7.73851 2.75159 6.71085 2.88976C5.70476 3.02502 5.12511 3.27869 4.7019 3.7019C4.27869 4.12511 4.02502 4.70476 3.88976 5.71085C3.75159 6.73851 3.75 8.09318 3.75 10V16C3.75 16.9876 4.38624 17.8265 5.27117 18.1293C5.24998 17.5194 5.24999 16.8297 5.25 16.0549V10.9451C5.24998 9.57754 5.24996 8.47522 5.36652 7.60825C5.48754 6.70814 5.74643 5.95027 6.34835 5.34835C6.95027 4.74643 7.70814 4.48754 8.60825 4.36652C9.47522 4.24996 10.5775 4.24998 11.9451 4.25H15.0549C15.8297 4.24999 16.5194 4.24998 17.1293 4.27117ZM7.40901 6.40901C7.68577 6.13225 8.07435 5.9518 8.80812 5.85315C9.56347 5.75159 10.5646 5.75 12 5.75H15C16.4354 5.75 17.4365 5.75159 18.1919 5.85315C18.9257 5.9518 19.3142 6.13225 19.591 6.40901C19.8678 6.68577 20.0482 7.07435 20.1469 7.80812C20.2484 8.56347 20.25 9.56458 20.25 11V16C20.25 17.4354 20.2484 18.4365 20.1469 19.1919C20.0482 19.9257 19.8678 20.3142 19.591 20.591C19.3142 20.8678 18.9257 21.0482 18.1919 21.1469C17.4365 21.2484 16.4354 21.25 15 21.25H12C10.5646 21.25 9.56347 21.2484 8.80812 21.1469C8.07435 21.0482 7.68577 20.8678 7.40901 20.591C7.13225 20.3142 6.9518 19.9257 6.85315 19.1919C6.75159 18.4365 6.75 17.4354 6.75 16V11C6.75 9.56458 6.75159 8.56347 6.85315 7.80812C6.9518 7.07435 7.13225 6.68577 7.40901 6.40901Z" fill="#1C274C"></path>
</symbol>
<symbol viewBox="0 0 24 24" fill="none" id="eye-outline">
<path fill-rule="evenodd" clip-rule="evenodd" d="M12 8.25C9.92893 8.25 8.25 9.92893 8.25 12C8.25 14.0711 9.92893 15.75 12 15.75C14.0711 15.75 15.75 14.0711 15.75 12C15.75 9.92893 14.0711 8.25 12 8.25ZM9.75 12C9.75 10.7574 10.7574 9.75 12 9.75C13.2426 9.75 14.25 10.7574 14.25 12C14.25 13.2426 13.2426 14.25 12 14.25C10.7574 14.25 9.75 13.2426 9.75 12Z" fill="#1C274C"></path>
<path fill-rule="evenodd" clip-rule="evenodd" d="M12 3.25C7.48587 3.25 4.44529 5.9542 2.68057 8.24686L2.64874 8.2882C2.24964 8.80653 1.88206 9.28392 1.63269 9.8484C1.36564 10.4529 1.25 11.1117 1.25 12C1.25 12.8883 1.36564 13.5471 1.63269 14.1516C1.88206 14.7161 2.24964 15.1935 2.64875 15.7118L2.68057 15.7531C4.44529 18.0458 7.48587 20.75 12 20.75C16.5141 20.75 19.5547 18.0458 21.3194 15.7531L21.3512 15.7118C21.7504 15.1935 22.1179 14.7161 22.3673 14.1516C22.6344 13.5471 22.75 12.8883 22.75 12C22.75 11.1117 22.6344 10.4529 22.3673 9.8484C22.1179 9.28391 21.7504 8.80652 21.3512 8.28818L21.3194 8.24686C19.5547 5.9542 16.5141 3.25 12 3.25ZM3.86922 9.1618C5.49864 7.04492 8.15036 4.75 12 4.75C15.8496 4.75 18.5014 7.04492 20.1308 9.1618C20.5694 9.73159 20.8263 10.0721 20.9952 10.4545C21.1532 10.812 21.25 11.2489 21.25 12C21.25 12.7511 21.1532 13.188 20.9952 13.5455C20.8263 13.9279 20.5694 14.2684 20.1308 14.8382C18.5014 16.9551 15.8496 19.25 12 19.25C8.15036 19.25 5.49864 16.9551 3.86922 14.8382C3.43064 14.2684 3.17374 13.9279 3.00476 13.5455C2.84684 13.188 2.75 12.7511 2.75 12C2.75 11.2489 2.84684 10.812 3.00476 10.4545C3.17374 10.0721 3.43063 9.73159 3.86922 9.1618Z" fill="#1C274C"></path>
</symbol>
<symbol viewBox="0 0 24 24" fill="none" id="filter-outline">
<path fill-rule="evenodd" clip-rule="evenodd" d="M4.95301 2.25C4.96862 2.25 4.98429 2.25 5.00001 2.25L19.047 2.25C19.7139 2.24997 20.2841 2.24994 20.7398 2.30742C21.2231 2.36839 21.6902 2.50529 22.0738 2.86524C22.4643 3.23154 22.6194 3.68856 22.6875 4.16405C22.7501 4.60084 22.7501 5.14397 22.75 5.76358L22.75 6.54012C22.75 7.02863 22.75 7.45095 22.7136 7.80311C22.6743 8.18206 22.5885 8.5376 22.3825 8.87893C22.1781 9.2177 21.9028 9.4636 21.5854 9.68404C21.2865 9.8917 20.9045 10.1067 20.4553 10.3596L17.5129 12.0159C16.8431 12.393 16.6099 12.5288 16.4542 12.6639C16.0966 12.9744 15.8918 13.3188 15.7956 13.7504C15.7545 13.9349 15.75 14.1672 15.75 14.8729L15.75 17.605C15.7501 18.5062 15.7501 19.2714 15.6574 19.8596C15.5587 20.4851 15.3298 21.0849 14.7298 21.4602C14.1434 21.827 13.4975 21.7933 12.8698 21.6442C12.2653 21.5007 11.5203 21.2094 10.6264 20.8599L10.5395 20.826C10.1208 20.6623 9.75411 20.519 9.46385 20.3691C9.1519 20.208 8.8622 20.0076 8.64055 19.6957C8.41641 19.3803 8.32655 19.042 8.28648 18.6963C8.24994 18.381 8.24997 18.0026 8.25 17.5806L8.25 14.8729C8.25 14.1672 8.24555 13.9349 8.20442 13.7504C8.1082 13.3188 7.90342 12.9744 7.54584 12.6639C7.39014 12.5288 7.15692 12.393 6.48714 12.0159L3.54471 10.3596C3.09549 10.1067 2.71353 9.8917 2.41458 9.68404C2.09724 9.4636 1.82191 9.2177 1.61747 8.87893C1.41148 8.5376 1.32571 8.18206 1.28645 7.80311C1.24996 7.45094 1.24998 7.02863 1.25 6.54012L1.25001 5.81466C1.25001 5.79757 1.25 5.78054 1.25 5.76357C1.24996 5.14396 1.24991 4.60084 1.31251 4.16405C1.38064 3.68856 1.53576 3.23154 1.92618 2.86524C2.30983 2.50529 2.77695 2.36839 3.26024 2.30742C3.71592 2.24994 4.28607 2.24997 4.95301 2.25ZM3.44796 3.79563C3.1143 3.83772 3.0082 3.90691 2.95251 3.95916C2.90359 4.00505 2.83904 4.08585 2.79734 4.37683C2.75181 4.69454 2.75001 5.12868 2.75001 5.81466V6.50448C2.75001 7.03869 2.75093 7.38278 2.77846 7.64854C2.8041 7.89605 2.84813 8.01507 2.90174 8.10391C2.9569 8.19532 3.0485 8.298 3.27034 8.45209C3.50406 8.61444 3.82336 8.79508 4.30993 9.06899L7.22296 10.7088C7.25024 10.7242 7.2771 10.7393 7.30357 10.7542C7.86227 11.0685 8.24278 11.2826 8.5292 11.5312C9.12056 12.0446 9.49997 12.6682 9.66847 13.424C9.75036 13.7913 9.75022 14.2031 9.75002 14.7845C9.75002 14.8135 9.75 14.843 9.75 14.8729V17.5424C9.75 18.0146 9.75117 18.305 9.77651 18.5236C9.79942 18.7213 9.83552 18.7878 9.8633 18.8269C9.89359 18.8695 9.95357 18.9338 10.152 19.0363C10.3644 19.146 10.6571 19.2614 11.1192 19.442C12.0802 19.8177 12.7266 20.0685 13.2164 20.1848C13.695 20.2985 13.8527 20.2396 13.9343 20.1885C14.0023 20.146 14.1073 20.0597 14.1757 19.626C14.2478 19.1686 14.25 18.5234 14.25 17.5424V14.8729C14.25 14.843 14.25 14.8135 14.25 14.7845C14.2498 14.2031 14.2496 13.7913 14.3315 13.424C14.5 12.6682 14.8794 12.0446 15.4708 11.5312C15.7572 11.2826 16.1377 11.0685 16.6964 10.7542C16.7229 10.7393 16.7498 10.7242 16.7771 10.7088L19.6901 9.06899C20.1767 8.79508 20.496 8.61444 20.7297 8.45209C20.9515 8.298 21.0431 8.19532 21.0983 8.10391C21.1519 8.01507 21.1959 7.89605 21.2215 7.64854C21.2491 7.38278 21.25 7.03869 21.25 6.50448V5.81466C21.25 5.12868 21.2482 4.69454 21.2027 4.37683C21.161 4.08585 21.0964 4.00505 21.0475 3.95916C20.9918 3.90691 20.8857 3.83772 20.5521 3.79563C20.2015 3.75141 19.727 3.75 19 3.75H5.00001C4.27297 3.75 3.79854 3.75141 3.44796 3.79563Z" fill="#1C274C"></path>
</symbol>
<symbol viewBox="0 0 24 24" fill="none" id="heart-filled">
<g id="SVGRepo_bgCarrier" stroke-width="0"></g>
<g id="SVGRepo_tracerCarrier" stroke-linecap="round" stroke-linejoin="round"></g>
<g id="SVGRepo_iconCarrier"> <path d="M2 9.1371C2 14 6.01943 16.5914 8.96173 18.9109C10 19.7294 11 20.5 12 20.5C13 20.5 14 19.7294 15.0383 18.9109C17.9806 16.5914 22 14 22 9.1371C22 4.27416 16.4998 0.825464 12 5.50063C7.50016 0.825464 2 4.27416 2 9.1371Z" fill="#FF6F61"></path> </g>
</symbol>
<symbol viewBox="0 0 24 24" fill="none" id="heart-outline">
<path fill-rule="evenodd" clip-rule="evenodd" d="M5.62436 4.4241C3.96537 5.18243 2.75 6.98614 2.75 9.13701C2.75 11.3344 3.64922 13.0281 4.93829 14.4797C6.00072 15.676 7.28684 16.6675 8.54113 17.6345C8.83904 17.8642 9.13515 18.0925 9.42605 18.3218C9.95208 18.7365 10.4213 19.1004 10.8736 19.3647C11.3261 19.6292 11.6904 19.7499 12 19.7499C12.3096 19.7499 12.6739 19.6292 13.1264 19.3647C13.5787 19.1004 14.0479 18.7365 14.574 18.3218C14.8649 18.0925 15.161 17.8642 15.4589 17.6345C16.7132 16.6675 17.9993 15.676 19.0617 14.4797C20.3508 13.0281 21.25 11.3344 21.25 9.13701C21.25 6.98614 20.0346 5.18243 18.3756 4.4241C16.7639 3.68739 14.5983 3.88249 12.5404 6.02065C12.399 6.16754 12.2039 6.25054 12 6.25054C11.7961 6.25054 11.601 6.16754 11.4596 6.02065C9.40166 3.88249 7.23607 3.68739 5.62436 4.4241ZM12 4.45873C9.68795 2.39015 7.09896 2.10078 5.00076 3.05987C2.78471 4.07283 1.25 6.42494 1.25 9.13701C1.25 11.8025 2.3605 13.836 3.81672 15.4757C4.98287 16.7888 6.41022 17.8879 7.67083 18.8585C7.95659 19.0785 8.23378 19.292 8.49742 19.4998C9.00965 19.9036 9.55954 20.3342 10.1168 20.6598C10.6739 20.9853 11.3096 21.2499 12 21.2499C12.6904 21.2499 13.3261 20.9853 13.8832 20.6598C14.4405 20.3342 14.9903 19.9036 15.5026 19.4998C15.7662 19.292 16.0434 19.0785 16.3292 18.8585C17.5898 17.8879 19.0171 16.7888 20.1833 15.4757C21.6395 13.836 22.75 11.8025 22.75 9.13701C22.75 6.42494 21.2153 4.07283 18.9992 3.05987C16.901 2.10078 14.3121 2.39015 12 4.45873Z" fill="#1C274C"></path>
</symbol>
<symbol viewBox="0 0 24 24" fill="none" id="insert-outline">
<path d="M11.9425 1.25H12.0573C14.3657 1.24999 16.1747 1.24998 17.5862 1.43975C19.0309 1.63399 20.171 2.03933 21.0658 2.93414C21.9606 3.82895 22.3659 4.96897 22.5602 6.41371C22.7499 7.82519 22.7499 9.63423 22.7499 11.9426V12.0574C22.7499 14.3658 22.7499 16.1748 22.5602 17.5863C22.3659 19.031 21.9606 20.1711 21.0658 21.0659C20.2374 21.8943 19.198 22.3038 17.8993 22.514C16.6225 22.7207 15.0164 22.7458 13.0013 22.7494C12.5871 22.7502 12.2507 22.415 12.2499 22.0008C12.2492 21.5866 12.5843 21.2502 12.9986 21.2494C15.0385 21.2457 16.5216 21.2175 17.6596 21.0333C18.7756 20.8526 19.4765 20.5338 20.0051 20.0052C20.5748 19.4355 20.9017 18.6648 21.0735 17.3864C21.2483 16.0864 21.2499 14.3782 21.2499 12C21.2499 9.62178 21.2483 7.91356 21.0735 6.61358C20.9017 5.33517 20.5748 4.56445 20.0051 3.9948C19.4355 3.42514 18.6647 3.09825 17.3863 2.92637C16.0864 2.75159 14.3781 2.75 11.9999 2.75C9.62169 2.75 7.91347 2.75159 6.61349 2.92637C5.33509 3.09825 4.56437 3.42514 3.99471 3.9948C3.46609 4.52341 3.1473 5.22427 2.96665 6.34031C2.78246 7.47827 2.75416 8.96143 2.75049 11.0014C2.74974 11.4156 2.41335 11.7507 1.99914 11.75C1.58493 11.7493 1.24975 11.4129 1.25049 10.9986C1.25412 8.9835 1.27926 7.37741 1.48592 6.10063C1.69614 4.80193 2.10563 3.76255 2.93405 2.93414C3.82886 2.03933 4.96888 1.63399 6.41362 1.43975C7.82511 1.24998 9.63414 1.24999 11.9425 1.25Z" fill="#1C274C"></path>
<path d="M16.5 12C16.5 12.4142 16.1642 12.75 15.75 12.75H12C11.5858 12.75 11.25 12.4142 11.25 12V8.25C11.25 7.83579 11.5858 7.5 12 7.5C12.4142 7.5 12.75 7.83579 12.75 8.25V10.1893L16.4697 6.46967C16.7626 6.17678 17.2374 6.17678 17.5303 6.46967C17.8232 6.76256 17.8232 7.23744 17.5303 7.53033L13.8107 11.25H15.75C16.1642 11.25 16.5 11.5858 16.5 12Z" fill="#1C274C"></path>
<path fill-rule="evenodd" clip-rule="evenodd" d="M5.948 13.25C5.04952 13.25 4.3003 13.2499 3.70552 13.3299C3.07773 13.4143 2.51093 13.6 2.05546 14.0555C1.59999 14.5109 1.41432 15.0777 1.32991 15.7055C1.24995 16.3003 1.24997 17.0495 1.25 17.948V18.052C1.24997 18.9505 1.24995 19.6997 1.32991 20.2945C1.41432 20.9223 1.59999 21.4891 2.05546 21.9445C2.51093 22.4 3.07773 22.5857 3.70552 22.6701C4.3003 22.7501 5.04951 22.75 5.94798 22.75H6.052C6.95047 22.75 7.69971 22.7501 8.29448 22.6701C8.92228 22.5857 9.48908 22.4 9.94455 21.9445C10.4 21.4891 10.5857 20.9223 10.6701 20.2945C10.7501 19.6997 10.75 18.9505 10.75 18.052V17.948C10.75 17.0495 10.7501 16.3003 10.6701 15.7055C10.5857 15.0777 10.4 14.5109 9.94455 14.0555C9.48908 13.6 8.92228 13.4143 8.29448 13.3299C7.6997 13.2499 6.95048 13.25 6.052 13.25H5.948ZM3.11612 15.1161C3.24644 14.9858 3.44393 14.8786 3.9054 14.8165C4.38843 14.7516 5.03599 14.75 6 14.75C6.96401 14.75 7.61157 14.7516 8.09461 14.8165C8.55607 14.8786 8.75357 14.9858 8.88389 15.1161C9.0142 15.2464 9.12143 15.4439 9.18347 15.9054C9.24841 16.3884 9.25 17.036 9.25 18C9.25 18.964 9.24841 19.6116 9.18347 20.0946C9.12143 20.5561 9.0142 20.7536 8.88389 20.8839C8.75357 21.0142 8.55607 21.1214 8.09461 21.1835C7.61157 21.2484 6.96401 21.25 6 21.25C5.03599 21.25 4.38843 21.2484 3.9054 21.1835C3.44393 21.1214 3.24644 21.0142 3.11612 20.8839C2.9858 20.7536 2.87858 20.5561 2.81654 20.0946C2.7516 19.6116 2.75 18.964 2.75 18C2.75 17.036 2.7516 16.3884 2.81654 15.9054C2.87858 15.4439 2.9858 15.2464 3.11612 15.1161Z" fill="#1C274C"></path>
</symbol>
<symbol viewBox="0 0 24 24" fill="none" id="magnifer-outline">
<path fill-rule="evenodd" clip-rule="evenodd" d="M11.5 2.75C6.66751 2.75 2.75 6.66751 2.75 11.5C2.75 16.3325 6.66751 20.25 11.5 20.25C16.3325 20.25 20.25 16.3325 20.25 11.5C20.25 6.66751 16.3325 2.75 11.5 2.75ZM1.25 11.5C1.25 5.83908 5.83908 1.25 11.5 1.25C17.1609 1.25 21.75 5.83908 21.75 11.5C21.75 14.0605 20.8111 16.4017 19.2589 18.1982L22.5303 21.4697C22.8232 21.7626 22.8232 22.2374 22.5303 22.5303C22.2374 22.8232 21.7626 22.8232 21.4697 22.5303L18.1982 19.2589C16.4017 20.8111 14.0605 21.75 11.5 21.75C5.83908 21.75 1.25 17.1609 1.25 11.5Z" fill="#1C274C"></path>
</symbol>
<symbol viewBox="0 0 24 24" fill="none" id="menu-dots-outline">
<path fill-rule="evenodd" clip-rule="evenodd" d="M2.25 12C2.25 10.4812 3.48122 9.25 5 9.25C6.51878 9.25 7.75 10.4812 7.75 12C7.75 13.5188 6.51878 14.75 5 14.75C3.48122 14.75 2.25 13.5188 2.25 12ZM5 10.75C4.30964 10.75 3.75 11.3096 3.75 12C3.75 12.6904 4.30964 13.25 5 13.25C5.69036 13.25 6.25 12.6904 6.25 12C6.25 11.3096 5.69036 10.75 5 10.75Z" fill="#1C274C"></path>
<path fill-rule="evenodd" clip-rule="evenodd" d="M9.25 12C9.25 10.4812 10.4812 9.25 12 9.25C13.5188 9.25 14.75 10.4812 14.75 12C14.75 13.5188 13.5188 14.75 12 14.75C10.4812 14.75 9.25 13.5188 9.25 12ZM12 10.75C11.3096 10.75 10.75 11.3096 10.75 12C10.75 12.6904 11.3096 13.25 12 13.25C12.6904 13.25 13.25 12.6904 13.25 12C13.25 11.3096 12.6904 10.75 12 10.75Z" fill="#1C274C"></path>
<path fill-rule="evenodd" clip-rule="evenodd" d="M19 9.25C17.4812 9.25 16.25 10.4812 16.25 12C16.25 13.5188 17.4812 14.75 19 14.75C20.5188 14.75 21.75 13.5188 21.75 12C21.75 10.4812 20.5188 9.25 19 9.25ZM17.75 12C17.75 11.3096 18.3096 10.75 19 10.75C19.6904 10.75 20.25 11.3096 20.25 12C20.25 12.6904 19.6904 13.25 19 13.25C18.3096 13.25 17.75 12.6904 17.75 12Z" fill="#1C274C"></path>
</symbol>
<symbol viewBox="0 0 24 24" fill="none" id="pen-outline">
<path fill-rule="evenodd" clip-rule="evenodd" d="M11.9426 1.25L13.5 1.25C13.9142 1.25 14.25 1.58579 14.25 2C14.25 2.41421 13.9142 2.75 13.5 2.75H12C9.62178 2.75 7.91356 2.75159 6.61358 2.92637C5.33517 3.09825 4.56445 3.42514 3.9948 3.9948C3.42514 4.56445 3.09825 5.33517 2.92637 6.61358C2.75159 7.91356 2.75 9.62178 2.75 12C2.75 14.3782 2.75159 16.0864 2.92637 17.3864C3.09825 18.6648 3.42514 19.4355 3.9948 20.0052C4.56445 20.5749 5.33517 20.9018 6.61358 21.0736C7.91356 21.2484 9.62178 21.25 12 21.25C14.3782 21.25 16.0864 21.2484 17.3864 21.0736C18.6648 20.9018 19.4355 20.5749 20.0052 20.0052C20.5749 19.4355 20.9018 18.6648 21.0736 17.3864C21.2484 16.0864 21.25 14.3782 21.25 12V10.5C21.25 10.0858 21.5858 9.75 22 9.75C22.4142 9.75 22.75 10.0858 22.75 10.5V12.0574C22.75 14.3658 22.75 16.1748 22.5603 17.5863C22.366 19.031 21.9607 20.1711 21.0659 21.0659C20.1711 21.9607 19.031 22.366 17.5863 22.5603C16.1748 22.75 14.3658 22.75 12.0574 22.75H11.9426C9.63423 22.75 7.82519 22.75 6.41371 22.5603C4.96897 22.366 3.82895 21.9607 2.93414 21.0659C2.03933 20.1711 1.63399 19.031 1.43975 17.5863C1.24998 16.1748 1.24999 14.3658 1.25 12.0574V11.9426C1.24999 9.63423 1.24998 7.82519 1.43975 6.41371C1.63399 4.96897 2.03933 3.82895 2.93414 2.93414C3.82895 2.03933 4.96897 1.63399 6.41371 1.43975C7.82519 1.24998 9.63423 1.24999 11.9426 1.25ZM16.7705 2.27592C18.1384 0.908029 20.3562 0.908029 21.7241 2.27592C23.092 3.6438 23.092 5.86158 21.7241 7.22947L15.076 13.8776C14.7047 14.2489 14.4721 14.4815 14.2126 14.684C13.9069 14.9224 13.5761 15.1268 13.2261 15.2936C12.929 15.4352 12.6169 15.5392 12.1188 15.7052L9.21426 16.6734C8.67801 16.8521 8.0868 16.7126 7.68711 16.3129C7.28742 15.9132 7.14785 15.322 7.3266 14.7857L8.29477 11.8812C8.46079 11.3831 8.56479 11.071 8.7064 10.7739C8.87319 10.4239 9.07761 10.0931 9.31605 9.78742C9.51849 9.52787 9.7511 9.29529 10.1224 8.924L16.7705 2.27592ZM20.6634 3.33658C19.8813 2.55448 18.6133 2.55448 17.8312 3.33658L17.4546 3.7132C17.4773 3.80906 17.509 3.92327 17.5532 4.05066C17.6965 4.46372 17.9677 5.00771 18.48 5.51999C18.9923 6.03227 19.5363 6.30346 19.9493 6.44677C20.0767 6.49097 20.1909 6.52273 20.2868 6.54543L20.6634 6.16881C21.4455 5.38671 21.4455 4.11867 20.6634 3.33658ZM19.1051 7.72709C18.5892 7.50519 17.9882 7.14946 17.4193 6.58065C16.8505 6.01185 16.4948 5.41082 16.2729 4.89486L11.2175 9.95026C10.801 10.3668 10.6376 10.532 10.4988 10.7099C10.3274 10.9297 10.1804 11.1676 10.0605 11.4192C9.96337 11.623 9.88868 11.8429 9.7024 12.4017L9.27051 13.6974L10.3026 14.7295L11.5983 14.2976C12.1571 14.1113 12.377 14.0366 12.5808 13.9395C12.8324 13.8196 13.0703 13.6726 13.2901 13.5012C13.468 13.3624 13.6332 13.199 14.0497 12.7825L19.1051 7.72709Z" fill="#1C274C"></path>
</symbol>
<symbol viewBox="0 0 24 24" fill="none" id="square-share-line-outline">
<path fill-rule="evenodd" clip-rule="evenodd" d="M10.7521 1.99364C10.7556 2.40784 10.4226 2.74646 10.0084 2.74997C8.29884 2.76447 7.03889 2.82006 6.06281 3.01125C5.10767 3.19835 4.47982 3.50532 3.99518 3.98996C3.42533 4.55981 3.09834 5.33078 2.92642 6.60954C2.75159 7.90987 2.75 9.61855 2.75 11.9974C2.75 14.3762 2.75159 16.0849 2.92642 17.3852C3.09834 18.664 3.42533 19.435 3.99518 20.0048C4.56503 20.5747 5.336 20.9017 6.61476 21.0736C7.91509 21.2484 9.62377 21.25 12.0026 21.25C14.3814 21.25 16.0901 21.2484 17.3905 21.0736C18.6692 20.9017 19.4402 20.5747 20.01 20.0048C20.4947 19.5202 20.8017 18.8923 20.9887 17.9372C21.1799 16.9611 21.2355 15.7012 21.25 13.9916C21.2535 13.5774 21.5922 13.2444 22.0064 13.2479C22.4206 13.2515 22.7535 13.5901 22.75 14.0043C22.7355 15.7087 22.6819 17.0968 22.4608 18.2255C22.2356 19.3752 21.8272 20.309 21.0707 21.0655C20.1757 21.9605 19.0354 22.3659 17.5903 22.5602C16.1785 22.75 14.369 22.75 12.06 22.75H11.9452C9.63623 22.75 7.82673 22.75 6.41488 22.5602C4.96979 22.3659 3.82952 21.9605 2.93452 21.0655C2.03952 20.1705 1.63408 19.0302 1.43979 17.5851C1.24998 16.1733 1.24999 14.3638 1.25 12.0548V11.94C1.24999 9.63101 1.24998 7.82151 1.43979 6.40967C1.63408 4.96458 2.03952 3.8243 2.93452 2.9293C3.69102 2.1728 4.62478 1.76443 5.77447 1.53923C6.90322 1.31813 8.29131 1.26448 9.99573 1.25003C10.4099 1.24652 10.7485 1.57944 10.7521 1.99364ZM16.4697 1.46967C16.7626 1.17678 17.2374 1.17678 17.5303 1.46967L22.5303 6.46967C22.8232 6.76256 22.8232 7.23744 22.5303 7.53033L17.5303 12.5303C17.2374 12.8232 16.7626 12.8232 16.4697 12.5303C16.1768 12.2374 16.1768 11.7626 16.4697 11.4697L20.1893 7.75H14C12.4485 7.75 11.5328 8.50701 11.212 8.82933L11.0199 9.02244L10.8293 9.21204C10.507 9.53279 9.75 10.4485 9.75 12V15C9.75 15.4142 9.41421 15.75 9 15.75C8.58579 15.75 8.25 15.4142 8.25 15V12C8.25 9.91622 9.27703 8.64063 9.77125 8.14881C9.77125 8.14881 9.77125 8.14881 9.77125 8.14881L9.96178 7.9592L10.1488 7.77125C10.6406 7.27703 11.9162 6.25 14 6.25H20.1893L16.4697 2.53033C16.1768 2.23744 16.1768 1.76256 16.4697 1.46967Z" fill="#1C274C"></path>
</symbol>
<symbol viewBox="0 0 24 24" fill="none" id="trash-outline">
<path fill-rule="evenodd" clip-rule="evenodd" d="M10.3094 2.25002H13.6908C13.9072 2.24988 14.0957 2.24976 14.2737 2.27819C14.977 2.39049 15.5856 2.82915 15.9146 3.46084C15.9978 3.62073 16.0573 3.79961 16.1256 4.00494L16.2373 4.33984C16.2562 4.39653 16.2616 4.41258 16.2661 4.42522C16.4413 4.90933 16.8953 5.23659 17.4099 5.24964C17.4235 5.24998 17.44 5.25004 17.5001 5.25004H20.5001C20.9143 5.25004 21.2501 5.58582 21.2501 6.00004C21.2501 6.41425 20.9143 6.75004 20.5001 6.75004H3.5C3.08579 6.75004 2.75 6.41425 2.75 6.00004C2.75 5.58582 3.08579 5.25004 3.5 5.25004H6.50008C6.56013 5.25004 6.5767 5.24998 6.59023 5.24964C7.10488 5.23659 7.55891 4.90936 7.73402 4.42524C7.73863 4.41251 7.74392 4.39681 7.76291 4.33984L7.87452 4.00496C7.94281 3.79964 8.00233 3.62073 8.08559 3.46084C8.41453 2.82915 9.02313 2.39049 9.72643 2.27819C9.90445 2.24976 10.093 2.24988 10.3094 2.25002ZM9.00815 5.25004C9.05966 5.14902 9.10531 5.04404 9.14458 4.93548C9.1565 4.90251 9.1682 4.86742 9.18322 4.82234L9.28302 4.52292C9.37419 4.24941 9.39519 4.19363 9.41601 4.15364C9.52566 3.94307 9.72853 3.79686 9.96296 3.75942C10.0075 3.75231 10.067 3.75004 10.3553 3.75004H13.6448C13.9331 3.75004 13.9927 3.75231 14.0372 3.75942C14.2716 3.79686 14.4745 3.94307 14.5842 4.15364C14.605 4.19363 14.626 4.2494 14.7171 4.52292L14.8169 4.82216L14.8556 4.9355C14.8949 5.04405 14.9405 5.14902 14.992 5.25004H9.00815Z" fill="#1C274C"></path>
<path d="M5.91509 8.45015C5.88754 8.03685 5.53016 7.72415 5.11686 7.7517C4.70357 7.77925 4.39086 8.13663 4.41841 8.54993L4.88186 15.5017C4.96736 16.7844 5.03642 17.8205 5.19839 18.6336C5.36679 19.4789 5.65321 20.185 6.2448 20.7385C6.8364 21.2919 7.55995 21.5308 8.4146 21.6425C9.23662 21.7501 10.275 21.7501 11.5606 21.75H12.4395C13.7251 21.7501 14.7635 21.7501 15.5856 21.6425C16.4402 21.5308 17.1638 21.2919 17.7554 20.7385C18.347 20.185 18.6334 19.4789 18.8018 18.6336C18.9638 17.8206 19.0328 16.7844 19.1183 15.5017L19.5818 8.54993C19.6093 8.13663 19.2966 7.77925 18.8833 7.7517C18.47 7.72415 18.1126 8.03685 18.0851 8.45015L17.6251 15.3493C17.5353 16.6971 17.4713 17.6349 17.3307 18.3406C17.1943 19.025 17.004 19.3873 16.7306 19.6431C16.4572 19.8989 16.083 20.0647 15.391 20.1552C14.6776 20.2485 13.7376 20.25 12.3868 20.25H11.6134C10.2626 20.25 9.32255 20.2485 8.60915 20.1552C7.91715 20.0647 7.54299 19.8989 7.26958 19.6431C6.99617 19.3873 6.80583 19.025 6.66948 18.3406C6.52892 17.6349 6.46489 16.6971 6.37503 15.3493L5.91509 8.45015Z" fill="#1C274C"></path>
<path d="M9.42546 10.2538C9.83762 10.2125 10.2052 10.5133 10.2464 10.9254L10.7464 15.9254C10.7876 16.3376 10.4869 16.7051 10.0747 16.7463C9.66256 16.7875 9.29503 16.4868 9.25381 16.0747L8.75381 11.0747C8.7126 10.6625 9.01331 10.295 9.42546 10.2538Z" fill="#1C274C"></path>
<path d="M14.5747 10.2538C14.9869 10.295 15.2876 10.6625 15.2464 11.0747L14.7464 16.0747C14.7052 16.4868 14.3376 16.7875 13.9255 16.7463C13.5133 16.7051 13.2126 16.3376 13.2538 15.9254L13.7538 10.9254C13.795 10.5133 14.1626 10.2125 14.5747 10.2538Z" fill="#1C274C"></path>
</symbol>
<symbol viewBox="0 0 24 24" fill="none" id="user-outline">
<path fill-rule="evenodd" clip-rule="evenodd" d="M12.0001 1.25C9.37678 1.25 7.25013 3.37665 7.25013 6C7.25013 8.62335 9.37678 10.75 12.0001 10.75C14.6235 10.75 16.7501 8.62335 16.7501 6C16.7501 3.37665 14.6235 1.25 12.0001 1.25ZM8.75013 6C8.75013 4.20507 10.2052 2.75 12.0001 2.75C13.7951 2.75 15.2501 4.20507 15.2501 6C15.2501 7.79493 13.7951 9.25 12.0001 9.25C10.2052 9.25 8.75013 7.79493 8.75013 6Z" fill="#1C274C"></path>
<path fill-rule="evenodd" clip-rule="evenodd" d="M12.0001 12.25C9.68658 12.25 7.55506 12.7759 5.97558 13.6643C4.41962 14.5396 3.25013 15.8661 3.25013 17.5L3.25007 17.602C3.24894 18.7638 3.24752 20.222 4.52655 21.2635C5.15602 21.7761 6.03661 22.1406 7.22634 22.3815C8.4194 22.6229 9.97436 22.75 12.0001 22.75C14.0259 22.75 15.5809 22.6229 16.7739 22.3815C17.9637 22.1406 18.8443 21.7761 19.4737 21.2635C20.7527 20.222 20.7513 18.7638 20.7502 17.602L20.7501 17.5C20.7501 15.8661 19.5807 14.5396 18.0247 13.6643C16.4452 12.7759 14.3137 12.25 12.0001 12.25ZM4.75013 17.5C4.75013 16.6487 5.37151 15.7251 6.71098 14.9717C8.02693 14.2315 9.89541 13.75 12.0001 13.75C14.1049 13.75 15.9733 14.2315 17.2893 14.9717C18.6288 15.7251 19.2501 16.6487 19.2501 17.5C19.2501 18.8078 19.2098 19.544 18.5265 20.1004C18.156 20.4022 17.5366 20.6967 16.4763 20.9113C15.4194 21.1252 13.9744 21.25 12.0001 21.25C10.0259 21.25 8.58087 21.1252 7.52393 20.9113C6.46366 20.6967 5.84425 20.4022 5.47372 20.1004C4.79045 19.544 4.75013 18.8078 4.75013 17.5Z" fill="#1C274C"></path>
</symbol>
</defs>
</svg>
